G04*
G04 #@! TF.GenerationSoftware,Altium Limited,Altium Designer,21.1.1 (26)*
G04*
G04 Layer_Physical_Order=1*
G04 Layer_Color=255*
%FSLAX44Y44*%
%MOMM*%
G71*
G04*
G04 #@! TF.SameCoordinates,1E62C949-7E6C-4E94-960E-AF288404BBEF*
G04*
G04*
G04 #@! TF.FilePolarity,Positive*
G04*
G01*
G75*
%ADD11C,0.2000*%
%ADD13R,0.5200X0.5200*%
%ADD14R,0.8000X0.8000*%
%ADD15R,0.5500X0.4500*%
%ADD16R,0.4500X0.5500*%
%ADD17R,0.7600X1.2700*%
%ADD18R,0.7400X1.2700*%
%ADD19R,1.3000X1.5500*%
%ADD20R,2.4000X1.5000*%
%ADD21O,0.4000X0.8000*%
%ADD33C,2.0000*%
%ADD34R,2.0000X2.0000*%
%ADD35C,0.4500*%
G36*
X242961Y128059D02*
X241691Y127380D01*
X241463Y127532D01*
X240000Y127823D01*
X239519Y127728D01*
X239163Y128020D01*
X238592Y128838D01*
X238823Y130000D01*
X238532Y131463D01*
X237704Y132704D01*
X236463Y133532D01*
X235000Y133823D01*
X233537Y133532D01*
X232296Y132704D01*
X231468Y131463D01*
X231177Y130000D01*
X231468Y128537D01*
X232296Y127296D01*
X232451Y127193D01*
Y115536D01*
X231469Y114730D01*
X231000Y114823D01*
X229537Y114532D01*
X229114Y114250D01*
X220750D01*
X220750Y114250D01*
Y114250D01*
X220750Y114250D01*
X219568Y114462D01*
X219463Y114532D01*
X218000Y114823D01*
X216537Y114532D01*
X216114Y114250D01*
X208750D01*
Y106750D01*
X217250D01*
Y106750D01*
X218317Y107240D01*
X219463Y107468D01*
X219480Y107479D01*
X220750Y106800D01*
Y106750D01*
X229250D01*
Y106750D01*
X230520Y107272D01*
X231000Y107177D01*
X231931Y107362D01*
X233201Y106550D01*
Y92367D01*
X233198Y92364D01*
X232645Y91537D01*
X232451Y90561D01*
Y70807D01*
X232296Y70704D01*
X231468Y69463D01*
X231177Y68000D01*
X231468Y66537D01*
X232296Y65296D01*
X233537Y64468D01*
X235000Y64177D01*
X236463Y64468D01*
X237704Y65296D01*
X238532Y66537D01*
X238823Y68000D01*
X238532Y69463D01*
X237704Y70704D01*
X237549Y70807D01*
Y77716D01*
X238819Y78411D01*
X240000Y78177D01*
X241463Y78468D01*
X242704Y79296D01*
X243532Y80537D01*
X243818Y81973D01*
X243832Y82008D01*
X244924Y82976D01*
X245000Y82961D01*
X320000D01*
X320780Y83116D01*
X321442Y83558D01*
X321884Y84220D01*
X322039Y85000D01*
Y99961D01*
X356431D01*
X357239Y98691D01*
X357052Y97750D01*
X357343Y96287D01*
X358165Y95057D01*
X357703Y94366D01*
X357431Y93000D01*
Y89000D01*
X357703Y87634D01*
X358477Y86477D01*
X358786Y86270D01*
X358401Y85000D01*
X355297D01*
X354636Y86270D01*
X355277Y87229D01*
X355629Y89000D01*
Y89730D01*
X346371D01*
Y89000D01*
X346723Y87229D01*
X347364Y86270D01*
X346703Y85000D01*
X343599D01*
X343214Y86270D01*
X343523Y86477D01*
X344297Y87634D01*
X344569Y89000D01*
Y93000D01*
X344297Y94366D01*
X343523Y95523D01*
X342366Y96297D01*
X341000Y96569D01*
X339634Y96297D01*
X338477Y95523D01*
X337703Y94366D01*
X337431Y93000D01*
Y89000D01*
X337703Y87634D01*
X338477Y86477D01*
X338786Y86270D01*
X338401Y85000D01*
X337500D01*
Y67000D01*
X338401D01*
X338786Y65730D01*
X338477Y65523D01*
X337703Y64366D01*
X337431Y63000D01*
Y59000D01*
X337703Y57634D01*
X338477Y56477D01*
X339634Y55703D01*
X341000Y55431D01*
X342366Y55703D01*
X343523Y56477D01*
X344297Y57634D01*
X344569Y59000D01*
Y63000D01*
X344297Y64366D01*
X343523Y65523D01*
X343214Y65730D01*
X343599Y67000D01*
X348401D01*
X348786Y65730D01*
X348477Y65523D01*
X347703Y64366D01*
X347431Y63000D01*
Y59000D01*
X347703Y57634D01*
X348046Y57120D01*
X347797Y56954D01*
X346968Y55713D01*
X346677Y54250D01*
X346864Y53309D01*
X346056Y52039D01*
X333507D01*
X332699Y53309D01*
X332886Y54250D01*
X332595Y55713D01*
X331766Y56954D01*
X331580Y57078D01*
Y67900D01*
X333100D01*
Y74860D01*
X334140D01*
Y78730D01*
X329000D01*
X323860D01*
Y77428D01*
X322590Y76456D01*
X322000Y76573D01*
X320537Y76282D01*
X319296Y75453D01*
X318468Y74213D01*
X318177Y72750D01*
X318468Y71287D01*
X319296Y70046D01*
X320537Y69218D01*
X322000Y68926D01*
X323463Y69218D01*
X323630Y69329D01*
X324900Y68650D01*
Y67900D01*
X326482D01*
Y57036D01*
X326359Y56954D01*
X325530Y55713D01*
X325239Y54250D01*
X325426Y53309D01*
X324618Y52039D01*
X323039D01*
Y65000D01*
X322884Y65780D01*
X322442Y66442D01*
X321780Y66884D01*
X321000Y67039D01*
X245000D01*
X244220Y66884D01*
X243558Y66442D01*
X243116Y65780D01*
X242961Y65000D01*
Y2039D01*
X232312D01*
X231590Y3010D01*
X231590Y3309D01*
Y10630D01*
X225350D01*
Y11900D01*
X224080D01*
Y20790D01*
X220260D01*
X219110Y20790D01*
X217840Y20790D01*
X213920D01*
Y11900D01*
X212650D01*
Y10630D01*
X206310D01*
Y3309D01*
X206310Y3010D01*
X205588Y2039D01*
X190246D01*
X189500Y3000D01*
X189500Y3309D01*
Y21500D01*
X184049D01*
Y82500D01*
X189500D01*
Y101000D01*
X184549D01*
Y102750D01*
X186250D01*
Y110250D01*
X177750D01*
X177750Y110250D01*
Y110250D01*
X177750Y110250D01*
X176568Y110462D01*
X176463Y110532D01*
X175000Y110823D01*
X173537Y110532D01*
X172296Y109704D01*
X171468Y108463D01*
X171177Y107000D01*
X171468Y105537D01*
X172296Y104296D01*
X173537Y103468D01*
X175000Y103177D01*
X176463Y103468D01*
X176480Y103479D01*
X177750Y102800D01*
Y102750D01*
X179451D01*
Y101000D01*
X173500D01*
Y82500D01*
X178951D01*
Y21500D01*
X173500D01*
Y3309D01*
X173500Y3000D01*
X172754Y2039D01*
X145540D01*
Y10980D01*
X136500D01*
X127460D01*
Y2039D01*
X125540D01*
Y10980D01*
X116500D01*
X107460D01*
Y2039D01*
X80246D01*
X79500Y3000D01*
X79500Y3309D01*
Y21500D01*
X74049D01*
Y82500D01*
X79181D01*
X79500Y82500D01*
X80451Y81730D01*
Y65807D01*
X80296Y65704D01*
X79468Y64463D01*
X79177Y63000D01*
X79468Y61537D01*
X80296Y60296D01*
X81537Y59468D01*
X83000Y59177D01*
X84463Y59468D01*
X85704Y60296D01*
X86532Y61537D01*
X86823Y63000D01*
X86532Y64463D01*
X85704Y65704D01*
X85549Y65807D01*
Y129193D01*
X85704Y129296D01*
X86532Y130537D01*
X86823Y132000D01*
X86532Y133463D01*
X85704Y134704D01*
X84463Y135532D01*
X83000Y135823D01*
X81537Y135532D01*
X80296Y134704D01*
X79706Y133819D01*
X79524Y133764D01*
X78476D01*
X78294Y133819D01*
X77704Y134704D01*
X77299Y134974D01*
Y139750D01*
X78250D01*
Y148250D01*
X70750D01*
Y147979D01*
X69480Y147453D01*
X68631Y148302D01*
X68049Y148691D01*
X68256Y149950D01*
X68260Y149961D01*
X87421D01*
X88500Y149500D01*
Y148298D01*
X87250Y148250D01*
Y148250D01*
X79750D01*
Y139750D01*
X87250D01*
Y139750D01*
X88500Y139702D01*
Y138500D01*
X98180D01*
X99222Y137230D01*
X99177Y137000D01*
X99468Y135537D01*
X100296Y134296D01*
X100451Y134193D01*
Y55807D01*
X100296Y55704D01*
X99468Y54463D01*
X99177Y53000D01*
X99468Y51537D01*
X100296Y50296D01*
X101537Y49468D01*
X103000Y49177D01*
X104463Y49468D01*
X105704Y50296D01*
X106532Y51537D01*
X106823Y53000D01*
X106532Y54463D01*
X105704Y55704D01*
X105549Y55807D01*
Y134193D01*
X105704Y134296D01*
X106532Y135537D01*
X106823Y137000D01*
X107201Y137460D01*
X108730D01*
Y144000D01*
X110000D01*
Y145270D01*
X116540D01*
Y149961D01*
X142421D01*
X143500Y149500D01*
X143500Y148298D01*
X142250Y148250D01*
Y148250D01*
X134750D01*
Y139750D01*
X142250D01*
Y139750D01*
X143500Y139702D01*
Y138500D01*
X154500D01*
X154500Y149500D01*
X155579Y149961D01*
X158460D01*
Y145270D01*
X165000D01*
X171540D01*
Y149961D01*
X242961D01*
Y128059D01*
D02*
G37*
G36*
X30957Y148691D02*
X29798Y147802D01*
X27955Y145400D01*
X26796Y142602D01*
X26401Y139600D01*
X26796Y136598D01*
X27955Y133800D01*
X29798Y131398D01*
X32200Y129555D01*
X34998Y128396D01*
X38000Y128001D01*
X41002Y128396D01*
X43800Y129555D01*
X46202Y131398D01*
X48045Y133800D01*
X48957Y136001D01*
X53750D01*
Y133750D01*
X62250D01*
Y133750D01*
X63520Y134272D01*
X64000Y134177D01*
X65463Y134468D01*
X66431Y135114D01*
X67389Y134785D01*
X67701Y134552D01*
Y122448D01*
X67389Y122215D01*
X66431Y121886D01*
X65463Y122532D01*
X64000Y122823D01*
X62537Y122532D01*
X62114Y122250D01*
X53750D01*
Y114750D01*
X62250D01*
Y114750D01*
X63520Y115272D01*
X64000Y115177D01*
X64747Y115325D01*
X65124Y114948D01*
X65951Y114395D01*
X66926Y114201D01*
X67750D01*
Y111750D01*
X76250D01*
Y119250D01*
X72799D01*
Y127549D01*
X74069Y128362D01*
X75000Y128177D01*
X76463Y128468D01*
X77704Y129296D01*
X78294Y130181D01*
X78476Y130236D01*
X79524D01*
X79706Y130181D01*
X80296Y129296D01*
X80451Y129193D01*
Y101770D01*
X79500Y101000D01*
X79181Y101000D01*
X74549D01*
Y102750D01*
X76250D01*
Y110250D01*
X67750D01*
X67750Y110250D01*
Y110250D01*
X67750Y110250D01*
X66568Y110462D01*
X66463Y110532D01*
X65000Y110823D01*
X63537Y110532D01*
X62296Y109704D01*
X61468Y108463D01*
X61177Y107000D01*
X61468Y105537D01*
X62296Y104296D01*
X63537Y103468D01*
X65000Y103177D01*
X66463Y103468D01*
X66480Y103479D01*
X67750Y102800D01*
Y102750D01*
X69451D01*
Y101000D01*
X63500D01*
Y82500D01*
X68951D01*
Y21500D01*
X63500D01*
Y3309D01*
X63500Y3000D01*
X62754Y2039D01*
X45214D01*
X44783Y3309D01*
X46202Y4398D01*
X48045Y6800D01*
X49204Y9598D01*
X49264Y10051D01*
X51664D01*
X52537Y9468D01*
X54000Y9177D01*
X55463Y9468D01*
X56704Y10296D01*
X57532Y11537D01*
X57823Y13000D01*
X57532Y14463D01*
X56704Y15704D01*
X55463Y16532D01*
X54000Y16823D01*
X52537Y16532D01*
X51296Y15704D01*
X50926Y15149D01*
X49264D01*
X49204Y15602D01*
X48045Y18400D01*
X46202Y20802D01*
X43800Y22645D01*
X41002Y23804D01*
X38488Y24135D01*
Y25416D01*
X41274Y25783D01*
X44324Y27046D01*
X46944Y29056D01*
X48954Y31676D01*
X50217Y34726D01*
X50481Y36730D01*
X38000D01*
Y39270D01*
X50481D01*
X50217Y41274D01*
X48954Y44324D01*
X46944Y46944D01*
X44324Y48954D01*
X41274Y50217D01*
X38767Y50547D01*
X38488Y50584D01*
Y51865D01*
X38767Y51902D01*
X41002Y52196D01*
X43800Y53355D01*
X46202Y55198D01*
X48045Y57600D01*
X49204Y60398D01*
X49599Y63400D01*
X49204Y66402D01*
X48045Y69200D01*
X46202Y71602D01*
X43800Y73445D01*
X41002Y74604D01*
X38000Y74999D01*
X34998Y74604D01*
X32200Y73445D01*
X29798Y71602D01*
X27955Y69200D01*
X26796Y66402D01*
X26401Y63400D01*
X26796Y60398D01*
X27955Y57600D01*
X29798Y55198D01*
X32200Y53355D01*
X34998Y52196D01*
X37233Y51902D01*
X37512Y51865D01*
Y50584D01*
X37233Y50547D01*
X34726Y50217D01*
X31676Y48954D01*
X29056Y46944D01*
X27046Y44324D01*
X25987Y41767D01*
X24613D01*
X23554Y44324D01*
X21544Y46944D01*
X18924Y48954D01*
X15874Y50217D01*
X13088Y50584D01*
Y51865D01*
X15602Y52196D01*
X18400Y53355D01*
X20802Y55198D01*
X22645Y57600D01*
X23804Y60398D01*
X24199Y63400D01*
X23804Y66402D01*
X22645Y69200D01*
X20802Y71602D01*
X18400Y73445D01*
X15602Y74604D01*
X12600Y74999D01*
X9598Y74604D01*
X6800Y73445D01*
X4398Y71602D01*
X3309Y70183D01*
X2039Y70614D01*
Y81586D01*
X3309Y82017D01*
X4398Y80598D01*
X6800Y78755D01*
X9598Y77596D01*
X12600Y77201D01*
X15602Y77596D01*
X18400Y78755D01*
X20802Y80598D01*
X22645Y83000D01*
X23804Y85798D01*
X24199Y88800D01*
X23804Y91802D01*
X22645Y94600D01*
X20802Y97002D01*
X18400Y98845D01*
X15602Y100004D01*
X12600Y100399D01*
X9598Y100004D01*
X6800Y98845D01*
X4398Y97002D01*
X3309Y95583D01*
X2039Y96014D01*
Y106986D01*
X3309Y107417D01*
X4398Y105998D01*
X6800Y104155D01*
X9598Y102996D01*
X12600Y102601D01*
X15602Y102996D01*
X18400Y104155D01*
X20802Y105998D01*
X22645Y108400D01*
X23804Y111198D01*
X24199Y114200D01*
X23804Y117202D01*
X22645Y120000D01*
X20802Y122402D01*
X18400Y124245D01*
X15602Y125404D01*
X12600Y125799D01*
X9598Y125404D01*
X6800Y124245D01*
X4398Y122402D01*
X3309Y120983D01*
X2039Y121414D01*
Y128100D01*
X24100D01*
Y149961D01*
X30526D01*
X30957Y148691D01*
D02*
G37*
G36*
X367961Y52039D02*
X365444D01*
X364636Y53309D01*
X364823Y54250D01*
X364532Y55713D01*
X363773Y56850D01*
X364297Y57634D01*
X364569Y59000D01*
Y63000D01*
X364297Y64366D01*
X363523Y65523D01*
X363214Y65730D01*
X363599Y67000D01*
X364500D01*
Y85000D01*
X363599D01*
X363214Y86270D01*
X363523Y86477D01*
X364297Y87634D01*
X364569Y89000D01*
Y93000D01*
X364297Y94366D01*
X363710Y95244D01*
X364407Y96287D01*
X364698Y97750D01*
X364511Y98691D01*
X365319Y99961D01*
X367961D01*
Y52039D01*
D02*
G37*
G36*
X27046Y31676D02*
X29056Y29056D01*
X31676Y27046D01*
X34726Y25783D01*
X37512Y25416D01*
Y24135D01*
X34998Y23804D01*
X32200Y22645D01*
X29798Y20802D01*
X27955Y18400D01*
X26796Y15602D01*
X26736Y15149D01*
X23864D01*
X23804Y15602D01*
X22645Y18400D01*
X20802Y20802D01*
X18400Y22645D01*
X15602Y23804D01*
X13088Y24135D01*
Y25416D01*
X15874Y25783D01*
X18924Y27046D01*
X21544Y29056D01*
X23554Y31676D01*
X24613Y34233D01*
X25987D01*
X27046Y31676D01*
D02*
G37*
%LPC*%
G36*
X171540Y142730D02*
X166270D01*
Y137460D01*
X171540D01*
Y142730D01*
D02*
G37*
G36*
X163730D02*
X158460D01*
Y137460D01*
X163730D01*
Y142730D01*
D02*
G37*
G36*
X116540Y142730D02*
X111270D01*
Y137460D01*
X116540D01*
Y142730D01*
D02*
G37*
G36*
X133250Y148250D02*
X125750D01*
Y139750D01*
X125800D01*
X126479Y138480D01*
X126468Y138463D01*
X126177Y137000D01*
X126468Y135537D01*
X127296Y134296D01*
X128537Y133468D01*
X130000Y133177D01*
X131463Y133468D01*
X132704Y134296D01*
X133532Y135537D01*
X133823Y137000D01*
X133532Y138463D01*
X133462Y138568D01*
X133250Y139750D01*
X133250Y139750D01*
X133250Y139750D01*
Y148250D01*
D02*
G37*
G36*
X176000Y119823D02*
X174537Y119532D01*
X173296Y118704D01*
X172468Y117463D01*
X172177Y116000D01*
X172468Y114537D01*
X173296Y113296D01*
X174537Y112468D01*
X176000Y112177D01*
X176480Y112272D01*
X177750Y111750D01*
Y111750D01*
X186250D01*
Y119250D01*
X177886D01*
X177463Y119532D01*
X176000Y119823D01*
D02*
G37*
G36*
X145540Y102040D02*
X137770D01*
Y93020D01*
X145540D01*
Y102040D01*
D02*
G37*
G36*
X135230D02*
X127460D01*
Y93020D01*
X135230D01*
Y102040D01*
D02*
G37*
G36*
X125540Y102040D02*
X117770D01*
Y93020D01*
X125540D01*
Y102040D01*
D02*
G37*
G36*
X115230D02*
X107460D01*
Y93020D01*
X115230D01*
Y102040D01*
D02*
G37*
G36*
X352270Y97376D02*
Y92270D01*
X355629D01*
Y93000D01*
X355277Y94771D01*
X354273Y96273D01*
X352771Y97277D01*
X352270Y97376D01*
D02*
G37*
G36*
X349730D02*
X349229Y97277D01*
X347727Y96273D01*
X346723Y94771D01*
X346371Y93000D01*
Y92270D01*
X349730D01*
Y97376D01*
D02*
G37*
G36*
X145540Y90480D02*
X137770D01*
Y81460D01*
X145540D01*
Y90480D01*
D02*
G37*
G36*
X135230D02*
X127460D01*
Y81460D01*
X135230D01*
Y90480D01*
D02*
G37*
G36*
X125540Y90480D02*
X117770D01*
Y81460D01*
X125540D01*
Y90480D01*
D02*
G37*
G36*
X115230D02*
X107460D01*
Y81460D01*
X115230D01*
Y90480D01*
D02*
G37*
G36*
X334140Y85140D02*
X330270D01*
Y81270D01*
X334140D01*
Y85140D01*
D02*
G37*
G36*
X327730D02*
X323860D01*
Y81270D01*
X327730D01*
Y85140D01*
D02*
G37*
G36*
X217250Y105250D02*
X208750D01*
Y97750D01*
X210451D01*
Y95950D01*
X207350D01*
Y80250D01*
X208582D01*
X209371Y78980D01*
X209177Y78000D01*
X209468Y76537D01*
X210296Y75296D01*
X211537Y74468D01*
X213000Y74177D01*
X214463Y74468D01*
X215704Y75296D01*
X216532Y76537D01*
X216823Y78000D01*
X216628Y78980D01*
X217418Y80250D01*
X217950D01*
Y95950D01*
X215549D01*
Y97750D01*
X217250D01*
Y105250D01*
D02*
G37*
G36*
X229250D02*
X220750D01*
Y97750D01*
X222451D01*
Y95950D01*
X220050D01*
Y80250D01*
X222451D01*
Y75807D01*
X222296Y75704D01*
X221468Y74463D01*
X221177Y73000D01*
X221468Y71537D01*
X222296Y70296D01*
X223537Y69468D01*
X225000Y69177D01*
X226463Y69468D01*
X227704Y70296D01*
X228532Y71537D01*
X228823Y73000D01*
X228532Y74463D01*
X227704Y75704D01*
X227549Y75807D01*
Y80250D01*
X230650D01*
Y95950D01*
X227549D01*
Y97750D01*
X229250D01*
Y105250D01*
D02*
G37*
G36*
X145540Y22540D02*
X137770D01*
Y13520D01*
X145540D01*
Y22540D01*
D02*
G37*
G36*
X135230D02*
X127460D01*
Y13520D01*
X135230D01*
Y22540D01*
D02*
G37*
G36*
X125540Y22540D02*
X117770D01*
Y13520D01*
X125540D01*
Y22540D01*
D02*
G37*
G36*
X115230D02*
X107460D01*
Y13520D01*
X115230D01*
Y22540D01*
D02*
G37*
G36*
X226620Y20790D02*
Y13170D01*
X231590D01*
Y20790D01*
X226620D01*
D02*
G37*
G36*
X211380D02*
X206310D01*
Y13170D01*
X211380D01*
Y20790D01*
D02*
G37*
G36*
X200000Y114823D02*
X198537Y114532D01*
X197296Y113704D01*
X196468Y112463D01*
X196177Y111000D01*
X196468Y109537D01*
X197296Y108296D01*
X197454Y108191D01*
Y68631D01*
X197299Y68527D01*
X196470Y67287D01*
X196179Y65824D01*
X196470Y64361D01*
X197299Y63120D01*
X197453Y63018D01*
Y15808D01*
X197296Y15704D01*
X196468Y14463D01*
X196177Y13000D01*
X196468Y11537D01*
X197296Y10296D01*
X198537Y9468D01*
X200000Y9177D01*
X201463Y9468D01*
X202704Y10296D01*
X203532Y11537D01*
X203823Y13000D01*
X203532Y14463D01*
X202704Y15704D01*
X202550Y15806D01*
Y63016D01*
X202706Y63120D01*
X203535Y64361D01*
X203826Y65824D01*
X203535Y67287D01*
X202706Y68527D01*
X202552Y68631D01*
Y108195D01*
X202704Y108296D01*
X203532Y109537D01*
X203823Y111000D01*
X203532Y112463D01*
X202704Y113704D01*
X201463Y114532D01*
X200000Y114823D01*
D02*
G37*
G36*
X52000Y131823D02*
X50537Y131532D01*
X49296Y130704D01*
X48468Y129463D01*
X48177Y128000D01*
X48468Y126537D01*
X49296Y125296D01*
X50537Y124468D01*
X52000Y124177D01*
X52480Y124272D01*
X53750Y123750D01*
Y123750D01*
X62250D01*
Y131250D01*
X53886D01*
X53463Y131532D01*
X52000Y131823D01*
D02*
G37*
G36*
X38000Y125799D02*
X34998Y125404D01*
X32200Y124245D01*
X29798Y122402D01*
X27955Y120000D01*
X26796Y117202D01*
X26401Y114200D01*
X26796Y111198D01*
X27955Y108400D01*
X29798Y105998D01*
X32200Y104155D01*
X34998Y102996D01*
X38000Y102601D01*
X41002Y102996D01*
X43800Y104155D01*
X46202Y105998D01*
X48045Y108400D01*
X49204Y111198D01*
X49599Y114200D01*
X49204Y117202D01*
X48045Y120000D01*
X46202Y122402D01*
X43800Y124245D01*
X41002Y125404D01*
X38000Y125799D01*
D02*
G37*
G36*
Y100399D02*
X34998Y100004D01*
X32200Y98845D01*
X29798Y97002D01*
X27955Y94600D01*
X26796Y91802D01*
X26401Y88800D01*
X26796Y85798D01*
X27955Y83000D01*
X29798Y80598D01*
X32200Y78755D01*
X34998Y77596D01*
X38000Y77201D01*
X41002Y77596D01*
X43800Y78755D01*
X46202Y80598D01*
X48045Y83000D01*
X49204Y85798D01*
X49599Y88800D01*
X49204Y91802D01*
X48045Y94600D01*
X46202Y97002D01*
X43800Y98845D01*
X41002Y100004D01*
X38000Y100399D01*
D02*
G37*
%LPD*%
D11*
X329031Y54281D02*
Y71969D01*
Y54281D02*
X329062Y54250D01*
X328625Y72375D02*
X329031Y71969D01*
X350750Y54500D02*
Y60750D01*
X350500Y54250D02*
X350750Y54500D01*
Y60750D02*
X351000Y61000D01*
X361000Y61000D02*
X361000Y61000D01*
X361000Y54250D02*
Y61000D01*
X360938Y91062D02*
X361000Y91000D01*
X360938Y91062D02*
Y97688D01*
X360875Y97750D02*
X360938Y97688D01*
X321458Y80000D02*
X329000D01*
X318708Y77250D02*
X321458Y80000D01*
X318032Y77250D02*
X318708D01*
X322375Y72375D02*
X328625D01*
X322000Y72750D02*
X322375Y72375D01*
X116500Y91750D02*
X136500D01*
X136500Y91750D01*
X164000Y134000D02*
Y143000D01*
X165000Y144000D01*
X168000Y38000D02*
Y130000D01*
X164000Y134000D02*
X168000Y130000D01*
X110000Y120250D02*
X111000Y119250D01*
Y97250D02*
X116500Y91750D01*
X111000Y97250D02*
Y119250D01*
X110000Y120250D02*
Y144000D01*
X115000Y90250D02*
X116500Y91750D01*
X115000Y38000D02*
Y90250D01*
Y13750D02*
Y38000D01*
Y13750D02*
X116500Y12250D01*
X38000Y38000D02*
X54000D01*
X71500Y12250D02*
Y91750D01*
X12600Y38000D02*
X38000D01*
X200001Y13001D02*
Y65822D01*
X200003Y65824D01*
X200000Y13000D02*
X200001Y13001D01*
X53600Y12600D02*
X54000Y13000D01*
X38000Y12600D02*
X53600D01*
X12600D02*
X38000D01*
X70250Y116750D02*
X70750D01*
X66926D02*
X70250D01*
X71500Y115500D02*
X72000D01*
X70250Y116750D02*
Y139714D01*
X58000Y146500D02*
X66828D01*
X70250Y116750D02*
X71500Y115500D01*
X68243Y141722D02*
X70250Y139714D01*
X68243Y141722D02*
Y145086D01*
X66828Y146500D02*
X68243Y145086D01*
X64676Y119000D02*
X66926Y116750D01*
X64000Y119000D02*
X64676D01*
X70750Y116750D02*
X72000Y115500D01*
X58250Y118750D02*
X63750D01*
X58000Y118500D02*
X58250Y118750D01*
X63750D02*
X64000Y119000D01*
X176000Y116000D02*
X176250Y115750D01*
X181750D02*
X182000Y115500D01*
X176250Y115750D02*
X181750D01*
X225000Y110500D02*
X225250Y110750D01*
X230750D01*
X231000Y111000D01*
X235000Y113717D02*
Y130000D01*
Y113717D02*
X235750Y112968D01*
X235000Y68000D02*
Y90561D01*
X235750Y91311D01*
Y112968D01*
X200000Y111000D02*
X200003Y110997D01*
Y65824D02*
Y110997D01*
X228050Y14600D02*
Y45698D01*
X225350Y11900D02*
X228050Y14600D01*
Y45698D02*
X230000Y47648D01*
Y77000D01*
X328000Y81000D02*
X329000Y80000D01*
X328000Y97828D02*
X329172Y99000D01*
X349828D01*
X328000Y81000D02*
Y97828D01*
X351000Y91000D02*
Y97828D01*
X349828Y99000D02*
X351000Y97828D01*
X240000Y82000D02*
Y124000D01*
X58250Y137750D02*
X63750D01*
X58000Y137500D02*
X58250Y137750D01*
X63750D02*
X64000Y138000D01*
X83000Y63000D02*
Y132000D01*
X74750Y132250D02*
Y143750D01*
Y132250D02*
X75000Y132000D01*
X225000Y87750D02*
X225350Y88100D01*
X225000Y73000D02*
Y87750D01*
X212650Y88100D02*
X213000Y87750D01*
Y78000D02*
Y87750D01*
Y88450D02*
Y101500D01*
X212650Y88100D02*
X213000Y88450D01*
X225000Y88450D02*
Y101500D01*
Y88450D02*
X225350Y88100D01*
X103000Y53000D02*
Y137000D01*
X129500Y137500D02*
Y144000D01*
Y137500D02*
X130000Y137000D01*
X74500Y144000D02*
X74750Y143750D01*
X138500Y144000D02*
X149000D01*
X83500D02*
X94000D01*
X39050Y138550D02*
X56950D01*
X38000Y139600D02*
X39050Y138550D01*
X56950D02*
X58000Y137500D01*
X52000Y128000D02*
X57500D01*
X58000Y127500D01*
X175500Y106500D02*
X182000D01*
X175000Y107000D02*
X175500Y106500D01*
X181500Y91750D02*
X182000Y92250D01*
Y106500D01*
X181500Y12250D02*
Y91750D01*
X65500Y106500D02*
X72000D01*
X65000Y107000D02*
X65500Y106500D01*
X71500Y91750D02*
X72000Y92250D01*
Y106500D01*
D13*
X329000Y72000D02*
D03*
Y80000D02*
D03*
D14*
X94000Y144000D02*
D03*
X110000D02*
D03*
X149000D02*
D03*
X165000D02*
D03*
D15*
X58000Y137500D02*
D03*
Y146500D02*
D03*
Y127500D02*
D03*
Y118500D02*
D03*
X213000Y101500D02*
D03*
Y110500D02*
D03*
X225000Y101500D02*
D03*
Y110500D02*
D03*
X182000Y106500D02*
D03*
Y115500D02*
D03*
X72000Y106500D02*
D03*
Y115500D02*
D03*
D16*
X83500Y144000D02*
D03*
X74500D02*
D03*
X138500D02*
D03*
X129500D02*
D03*
D17*
X225350Y88100D02*
D03*
X212650D02*
D03*
Y11900D02*
D03*
D18*
X225350D02*
D03*
D19*
X136500Y12250D02*
D03*
Y91750D02*
D03*
X181500Y12250D02*
D03*
Y91750D02*
D03*
X116500Y91750D02*
D03*
Y12250D02*
D03*
X71500Y91750D02*
D03*
Y12250D02*
D03*
D20*
X351000Y76000D02*
D03*
D21*
X361000Y61000D02*
D03*
X351000D02*
D03*
X341000D02*
D03*
Y91000D02*
D03*
X351000D02*
D03*
X361000D02*
D03*
D33*
X38000Y12600D02*
D03*
X12600D02*
D03*
X38000Y38000D02*
D03*
X12600D02*
D03*
X38000Y63400D02*
D03*
X12600D02*
D03*
X38000Y114200D02*
D03*
Y139600D02*
D03*
X12600Y114200D02*
D03*
Y88800D02*
D03*
X38000D02*
D03*
D34*
X12600Y139600D02*
D03*
D35*
X329062Y54250D02*
D03*
X350500D02*
D03*
X361000D02*
D03*
X360875Y97750D02*
D03*
X318032Y77250D02*
D03*
X322000Y72750D02*
D03*
X84000Y30000D02*
D03*
X139000Y62000D02*
D03*
X207000Y144000D02*
D03*
X190000Y55000D02*
D03*
X189000Y31000D02*
D03*
X213000Y48000D02*
D03*
X92000Y93000D02*
D03*
X59000Y87000D02*
D03*
Y28000D02*
D03*
X89000Y44000D02*
D03*
X140000Y50000D02*
D03*
X159000Y61000D02*
D03*
X235822Y37818D02*
D03*
X231000Y142000D02*
D03*
X190000Y140000D02*
D03*
X157000Y97000D02*
D03*
X151000Y56000D02*
D03*
X124000Y54000D02*
D03*
X95000Y27000D02*
D03*
X168000Y38000D02*
D03*
X115000D02*
D03*
X54000D02*
D03*
X200000Y13000D02*
D03*
X54000D02*
D03*
X64000Y119000D02*
D03*
X176000Y116000D02*
D03*
X218000Y111000D02*
D03*
X231000D02*
D03*
X200000D02*
D03*
X200003Y65824D02*
D03*
X230000Y77000D02*
D03*
X240000Y124000D02*
D03*
Y82000D02*
D03*
X64000Y138000D02*
D03*
X83000Y132000D02*
D03*
X75000D02*
D03*
X235000Y130000D02*
D03*
Y68000D02*
D03*
X225000Y73000D02*
D03*
X213000Y78000D02*
D03*
X103000Y53000D02*
D03*
Y137000D02*
D03*
X130000D02*
D03*
X83000Y63000D02*
D03*
X52000Y128000D02*
D03*
X175000Y107000D02*
D03*
X65000D02*
D03*
M02*
