G04*
G04 #@! TF.GenerationSoftware,Altium Limited,Altium Designer,21.1.1 (26)*
G04*
G04 Layer_Color=32768*
%FSLAX44Y44*%
%MOMM*%
G71*
G04*
G04 #@! TF.SameCoordinates,1E62C949-7E6C-4E94-960E-AF288404BBEF*
G04*
G04*
G04 #@! TF.FilePolarity,Positive*
G04*
G01*
G75*
%ADD10C,0.1000*%
%ADD12C,0.0500*%
D10*
X102000Y139000D02*
Y149000D01*
X97000Y144000D02*
X107000D01*
X157000Y139000D02*
Y149000D01*
X152000Y144000D02*
X162000D01*
X25300Y71100D02*
Y81100D01*
X20300Y76100D02*
X30300D01*
X159000Y42000D02*
Y62000D01*
X149000Y52000D02*
X169000D01*
X128000Y102000D02*
X190000D01*
X128000Y2000D02*
Y102000D01*
Y2000D02*
X190000D01*
Y102000D01*
X94000Y42000D02*
Y62000D01*
X84000Y52000D02*
X104000D01*
X63000Y2000D02*
X125000D01*
Y102000D01*
X63000D02*
X125000D01*
X63000Y2000D02*
Y102000D01*
X346000Y76000D02*
X356000D01*
X351000Y71000D02*
Y81000D01*
X334000Y55000D02*
Y97000D01*
X368000Y55000D02*
Y97000D01*
X334000Y55000D02*
X368000D01*
X334000Y97000D02*
X368000D01*
D12*
X325000Y68000D02*
X333000D01*
X325000Y84000D02*
X333000D01*
X325000Y68000D02*
Y84000D01*
X333000Y68000D02*
Y84000D01*
X329000Y73000D02*
Y79000D01*
X326000Y76000D02*
X332000D01*
X88500Y150000D02*
X115500D01*
X88500Y138000D02*
X115500D01*
X88500D02*
Y150000D01*
X115500Y138000D02*
Y150000D01*
X143500D02*
X170500D01*
X143500Y138000D02*
X170500D01*
X143500D02*
Y150000D01*
X170500Y138000D02*
Y150000D01*
X-1370Y-2640D02*
Y154840D01*
Y-2640D02*
X51970D01*
Y154840D01*
X-1370D02*
X51970D01*
X55250Y142000D02*
X60750D01*
X58000Y139250D02*
Y144750D01*
X54000Y134000D02*
Y150000D01*
X62000Y134000D02*
Y150000D01*
X54000Y134000D02*
X62000D01*
X54000Y150000D02*
X62000D01*
X55250Y123000D02*
X60750D01*
X58000Y120250D02*
Y125750D01*
X62000Y115000D02*
Y131000D01*
X54000Y115000D02*
Y131000D01*
X62000D01*
X54000Y115000D02*
X62000D01*
X210250Y106000D02*
X215750D01*
X213000Y103250D02*
Y108750D01*
X209000Y98000D02*
Y114000D01*
X217000Y98000D02*
Y114000D01*
X209000Y98000D02*
X217000D01*
X209000Y114000D02*
X217000D01*
X222250Y106000D02*
X227750D01*
X225000Y103250D02*
Y108750D01*
X221000Y98000D02*
Y114000D01*
X229000Y98000D02*
Y114000D01*
X221000Y98000D02*
X229000D01*
X221000Y114000D02*
X229000D01*
X179250Y111000D02*
X184750D01*
X182000Y108250D02*
Y113750D01*
X178000Y103000D02*
Y119000D01*
X186000Y103000D02*
Y119000D01*
X178000Y103000D02*
X186000D01*
X178000Y119000D02*
X186000D01*
X69250Y111000D02*
X74750D01*
X72000Y108250D02*
Y113750D01*
X68000Y103000D02*
Y119000D01*
X76000Y103000D02*
Y119000D01*
X68000Y103000D02*
X76000D01*
X68000Y119000D02*
X76000D01*
X79000Y141250D02*
Y146750D01*
X76250Y144000D02*
X81750D01*
X71000Y140000D02*
X87000D01*
X71000Y148000D02*
X87000D01*
Y140000D02*
Y148000D01*
X71000Y140000D02*
Y148000D01*
X134000Y141250D02*
Y146750D01*
X131250Y144000D02*
X136750D01*
X126000Y140000D02*
X142000D01*
X126000Y148000D02*
X142000D01*
Y140000D02*
Y148000D01*
X126000Y140000D02*
Y148000D01*
M02*
