G04*
G04 #@! TF.GenerationSoftware,Altium Limited,Altium Designer,21.1.1 (26)*
G04*
G04 Layer_Color=8388736*
%FSLAX44Y44*%
%MOMM*%
G71*
G04*
G04 #@! TF.SameCoordinates,1E62C949-7E6C-4E94-960E-AF288404BBEF*
G04*
G04*
G04 #@! TF.FilePolarity,Negative*
G04*
G01*
G75*
%ADD22R,0.7200X0.7200*%
%ADD23R,1.0000X1.0000*%
%ADD24R,0.7500X0.6500*%
%ADD25R,0.6500X0.7500*%
%ADD26R,0.9600X1.4700*%
%ADD27R,0.9400X1.4700*%
%ADD28R,1.5000X1.7500*%
%ADD29R,2.6000X1.7000*%
%ADD30O,0.6000X1.0000*%
%ADD31C,2.2000*%
%ADD32R,2.2000X2.2000*%
D22*
X329000Y72000D02*
D03*
Y80000D02*
D03*
D23*
X94000Y144000D02*
D03*
X110000D02*
D03*
X149000D02*
D03*
X165000D02*
D03*
D24*
X58000Y137500D02*
D03*
Y146500D02*
D03*
Y127500D02*
D03*
Y118500D02*
D03*
X213000Y101500D02*
D03*
Y110500D02*
D03*
X225000Y101500D02*
D03*
Y110500D02*
D03*
X182000Y106500D02*
D03*
Y115500D02*
D03*
X72000Y106500D02*
D03*
Y115500D02*
D03*
D25*
X83500Y144000D02*
D03*
X74500D02*
D03*
X138500D02*
D03*
X129500D02*
D03*
D26*
X225350Y88100D02*
D03*
X212650D02*
D03*
Y11900D02*
D03*
D27*
X225350D02*
D03*
D28*
X136500Y12250D02*
D03*
Y91750D02*
D03*
X181500Y12250D02*
D03*
Y91750D02*
D03*
X116500Y91750D02*
D03*
Y12250D02*
D03*
X71500Y91750D02*
D03*
Y12250D02*
D03*
D29*
X351000Y76000D02*
D03*
D30*
X361000Y61000D02*
D03*
X351000D02*
D03*
X341000D02*
D03*
Y91000D02*
D03*
X351000D02*
D03*
X361000D02*
D03*
D31*
X38000Y12600D02*
D03*
X12600D02*
D03*
X38000Y38000D02*
D03*
X12600D02*
D03*
X38000Y63400D02*
D03*
X12600D02*
D03*
X38000Y114200D02*
D03*
Y139600D02*
D03*
X12600Y114200D02*
D03*
Y88800D02*
D03*
X38000D02*
D03*
D32*
X12600Y139600D02*
D03*
M02*
