G04*
G04 #@! TF.GenerationSoftware,Altium Limited,Altium Designer,21.1.1 (26)*
G04*
G04 Layer_Color=8421504*
%FSLAX44Y44*%
%MOMM*%
G71*
G04*
G04 #@! TF.SameCoordinates,1E62C949-7E6C-4E94-960E-AF288404BBEF*
G04*
G04*
G04 #@! TF.FilePolarity,Positive*
G04*
G01*
G75*
%ADD13R,0.5200X0.5200*%
%ADD14R,0.8000X0.8000*%
%ADD15R,0.5500X0.4500*%
%ADD16R,0.4500X0.5500*%
%ADD17R,0.7600X1.2700*%
%ADD18R,0.7400X1.2700*%
%ADD19R,1.3000X1.5500*%
%ADD20R,2.4000X1.5000*%
%ADD21O,0.4000X0.8000*%
D13*
X329000Y72000D02*
D03*
Y80000D02*
D03*
D14*
X94000Y144000D02*
D03*
X110000D02*
D03*
X149000D02*
D03*
X165000D02*
D03*
D15*
X58000Y137500D02*
D03*
Y146500D02*
D03*
Y127500D02*
D03*
Y118500D02*
D03*
X213000Y101500D02*
D03*
Y110500D02*
D03*
X225000Y101500D02*
D03*
Y110500D02*
D03*
X182000Y106500D02*
D03*
Y115500D02*
D03*
X72000Y106500D02*
D03*
Y115500D02*
D03*
D16*
X83500Y144000D02*
D03*
X74500D02*
D03*
X138500D02*
D03*
X129500D02*
D03*
D17*
X225350Y88100D02*
D03*
X212650D02*
D03*
Y11900D02*
D03*
D18*
X225350D02*
D03*
D19*
X136500Y12250D02*
D03*
Y91750D02*
D03*
X181500Y12250D02*
D03*
Y91750D02*
D03*
X116500Y91750D02*
D03*
Y12250D02*
D03*
X71500Y91750D02*
D03*
Y12250D02*
D03*
D20*
X351000Y76000D02*
D03*
D21*
X361000Y61000D02*
D03*
X351000D02*
D03*
X341000D02*
D03*
Y91000D02*
D03*
X351000D02*
D03*
X361000D02*
D03*
M02*
