M48
;Layer_Color=9474304
;FILE_FORMAT=4:4
METRIC,LZ
;TYPE=PLATED
T1F00S00C0.2000
T2F00S00C1.0000
%
T01
X00052Y00128
X00064Y00119
X00065Y00107
X00059Y00087
X00092Y00093
X00083Y00063
X00089Y00044
X00084Y0003
X00095Y00027
X00115Y00038
X00124Y00054
X0014Y0005
X00139Y00062
X00151Y00056
X00159Y00061
X00168Y00038
X00189Y00031
X0019Y00055
X00200003Y00065824
X00213Y00078
X00225Y00073
X0023Y00077
X00235Y00068
X0024Y00082
X00231Y00111
X00218
X002
X00176Y00116
X00175Y00107
X00157Y00097
X0013Y00137
X00103
X00083Y00132
X00075
X00064Y00138
X00054Y00038
X00059Y00028
X00054Y00013
X00103Y00053
X00213Y00048
X00235822Y00037818
X002Y00013
X0019Y0014
X00207Y00144
X00231Y00142
X00235Y0013
X0024Y00124
X00318032Y0007725
X00322Y0007275
X00329062Y0005425
X003505
X00361
X00360875Y0009775
T02
X000126Y000126
X00038
Y00038
X000126
Y000634
X00038
Y000888
Y001142
Y001396
X000126
Y001142
Y000888
M30
